<svg xmlns="http://www.w3.org/2000/svg" xmlns:xlink="http://www.w3.org/1999/xlink" width="128" height="150" viewBox="0 0 128 150"><g fill="#231F20"><path d="M96.3 31.1v-.2c0-17.1-13.9-31-31-31-16.7 0-30.3 13.2-31 29.7-20.4 10.8-34.3 32.1-34.3 56.6 0 35.2 28.7 63.8 64 63.8s64-28.6 64-63.8c0-23.5-12.8-44-31.7-55.1zM96.3 31.1v-.2c0-17.1-13.9-31-31-31-16.7 0-30.3 13.2-31 29.7-20.4 10.8-34.3 32.1-34.3 56.6 0 35.2 28.7 63.8 64 63.8s64-28.6 64-63.8c0-23.5-12.8-44-31.7-55.1zM96.3 31.1v-.2c0-17.1-13.9-31-31-31-16.7 0-30.3 13.2-31 29.7-20.4 10.8-34.3 32.1-34.3 56.6 0 35.2 28.7 63.8 64 63.8s64-28.6 64-63.8c0-23.5-12.8-44-31.7-55.1zM96.3 31.1v-.2c0-17.1-13.9-31-31-31-16.7 0-30.3 13.2-31 29.7-20.4 10.8-34.3 32.1-34.3 56.6 0 35.2 28.7 63.8 64 63.8s64-28.6 64-63.8c0-23.5-12.8-44-31.7-55.1z"/></g><defs><path id="a" d="M19.7 54c-17.8 24.4-12.3 58.6 12.3 76.4 24.6 17.8 58.9 12.5 76.7-11.9 17.8-24.4 12.3-58.6-12.3-76.4-9.8-7.1-21.2-10.5-32.4-10.5-17 0-33.6 7.7-44.3 22.4"/></defs><use xlink:href="#a" overflow="visible" fill="#00AA4F"/><clipPath><use xlink:href="#a" overflow="visible"/></clipPath><path fill="#fff" d="M49.6 95.4c0 3.3-2.7 6.1-6.1 6.1-3.4 0-6.1-2.7-6.1-6.1 0-3.4 2.7-6.1 6.1-6.1 3.4 0 6.1 2.7 6.1 6.1M65 9.4c-19.2 0-22.4 18.4-22.4 22.2 0 7.9 2.8 12.6 2.8 12.6l19.5 39.6s16.7-34.4 19.6-39.4c2.9-5 3.5-10.3 3.5-13.1-.1-5-3.8-21.9-23-21.9m.3 34.8c-6.6 0-12-5.3-12-12s5.4-12 12-12 12 5.3 12 12-5.4 12-12 12"/><path fill="#1D1C1A" d="M53.3 32.2c0 6.6 5.4 11.9 12 11.9s12-5.3 12-11.9c0-6.6-5.4-11.9-12-11.9s-12 5.3-12 11.9"/><defs><path id="b" d="M9.2 86.2c0 30.2 24.5 54.6 54.8 54.6 30.3 0 54.8-24.5 54.8-54.6s-24.5-54.6-54.8-54.6c-30.3 0-54.8 24.4-54.8 54.6"/></defs><clipPath id="c"><use xlink:href="#b" overflow="visible"/></clipPath><path clip-path="url(#c)" fill="#fff" d="M122.6 74.2h-35.5v-40.7c0-.6-.5-1.2-1.2-1.2-.6 0-1.2.5-1.2 1.2v40.7h-52.3v-34.4c0-.6-.5-1.2-1.2-1.2-.6 0-1.2.5-1.2 1.2v34.4h-23.2c-.6 0-1.2.5-1.2 1.2 0 .6.5 1.2 1.2 1.2h23.2v29.4h-17.6c-.6 0-1.2.5-1.2 1.2 0 .6.5 1.2 1.2 1.2h17.6v26.1c0 .6.5 1.2 1.2 1.2.6 0 1.2-.5 1.2-1.2v-26.1h52.4v34.3c0 .6.5 1.2 1.2 1.2.6 0 1.2-.5 1.2-1.2v-34.3h28.8c.6 0 1.2-.5 1.2-1.2 0-.6-.5-1.2-1.2-1.2h-28.9v-29.4h35.5c.6 0 1.2-.5 1.2-1.2 0-.6-.5-1.2-1.2-1.2zm-37.9 31.7h-52.3v-29.3h52.4v29.3z"/></svg>